<?xml version="1.0" encoding="UTF-8"?>
<svg id="Layer_2" data-name="Layer 2" xmlns="http://www.w3.org/2000/svg" viewBox="0 0 85.38 74.38">
  <defs>
    <style>
      .cls-1 {
        fill: none;
        stroke: #fff;
        stroke-miterlimit: 10;
        stroke-width: 2px;
      }
    </style>
  </defs>
  <g id="Layer_1-2" data-name="Layer 1">
    <g>
      <path class="cls-1" d="M78.94,37.19v25.33H6.44V19.1c0-1.99,1.63-3.62,3.62-3.62H26.38"/>
      <path class="cls-1" d="M1,62.52H84.38v3.62c0,4-3.24,7.24-7.25,7.24H8.25c-4.01,0-7.25-3.24-7.25-7.24v-3.62Z"/>
      <path class="cls-1" d="M39.06,67.95h9.06"/>
      <path class="cls-1" d="M30,22.71V6.43c0-3,2.43-5.43,5.44-5.43h43.5c3.01,0,5.44,2.42,5.44,5.43V28.14c0,3-2.43,5.43-5.44,5.43h-14.5l-13.21,13.19c-1.14,1.14-3.1,.33-3.1-1.28v-11.92h-7.25"/>
      <path class="cls-1" d="M44.5,58.9v-2.91c0-5.05-10.46-7.94-14.5-7.94s-14.5,2.9-14.5,7.94v2.91"/>
      <path class="cls-1" d="M30,26.33c-3.99,0-7.25,3.22-7.25,7.2v1.88c0,3.98,3.26,7.2,7.25,7.2s7.25-3.22,7.25-7.2v-1.88c0-3.98-3.26-7.2-7.25-7.2Z"/>
      <path class="cls-1" d="M42.69,13.67h29"/>
      <path class="cls-1" d="M42.69,20.9h16.31"/>
    </g>
  </g>
</svg>