<?xml version="1.0" encoding="UTF-8"?>
<svg id="Layer_2" data-name="Layer 2" xmlns="http://www.w3.org/2000/svg" viewBox="0 0 84.42 82.35">
  <defs>
    <style>
      .cls-1 {
        fill: none;
        stroke: #fff;
        stroke-linecap: round;
        stroke-linejoin: round;
        stroke-width: 2px;
      }
    </style>
  </defs>
  <g id="Layer_1-2" data-name="Layer 1">
    <g>
      <path class="cls-1" d="M52.06,37.52h8.96"/>
      <path class="cls-1" d="M56.54,37.52v-14.61h-3.58"/>
      <path class="cls-1" d="M56.54,14.7v1.83"/>
      <path class="cls-1" d="M15.33,67.92v6.21c0,1.64-1.18,3.08-2.89,3.53l-11.44,3.69"/>
      <path class="cls-1" d="M29.67,71.79v2.34c0,1.64,1.18,3.08,2.89,3.53l11.44,3.69"/>
      <path class="cls-1" d="M20.02,70.42c-5.78-1.53-10.12-7.87-10.12-14.13v-8.69c0-2.9,4.13-6.19,8.79-8.21"/>
      <path class="cls-1" d="M17,34.56c0,7.24,14.46,13.92,19.52,13.73"/>
      <path class="cls-1" d="M35.04,59.44v-10.96"/>
      <path class="cls-1" d="M26.08,68.57v3.65c8.6,0,14.33-6.99,14.33-12.78l3.58-1.83v-10.96l-3.58-1.83v-1.83c0-10.4-7.63-20.03-17.92-20.03S4.58,31.41,4.58,41.81v3.02l-3.58,1.83v10.96l4.3,1.92"/>
      <path class="cls-1" d="M49.77,54.88c1.04,.28,1.55,.38,2.64,.53,0,0-.05,6.73-1.17,11.34,8.21-2.44,12.31-11.9,12.31-11.9h-.09c11.48-3.13,19.95-13.77,19.95-26.45,0-15.13-12.03-27.39-26.88-27.39-11.39,0-21.12,7.22-25.04,17.41"/>
    </g>
  </g>
</svg>