<svg width="1268" height="679" viewBox="0 0 1268 679" fill="none" xmlns="http://www.w3.org/2000/svg">
<path d="M46.8966 486.129C46.7713 486.052 46.6282 486.008 46.481 486.001C46.3338 485.994 46.1873 486.025 46.0555 486.091L39.315 489.462H34.3269C33.1794 489.462 32.0788 489.918 31.2673 490.729C30.4559 491.541 30 492.641 30 493.789C30 494.936 30.4559 496.037 31.2673 496.848C32.0788 497.66 33.1794 498.116 34.3269 498.116H39.315L46.0555 501.491C46.1878 501.557 46.3348 501.588 46.4825 501.581C46.6303 501.574 46.7738 501.529 46.8994 501.451C47.025 501.373 47.1284 501.264 47.1999 501.135C47.2714 501.005 47.3085 500.86 47.3077 500.712V486.866C47.3077 486.718 47.2699 486.573 47.198 486.444C47.126 486.315 47.0223 486.207 46.8966 486.129Z" fill="#772480"/>
<path d="M48.1731 491.192V496.385C48.8616 496.385 49.522 496.111 50.0089 495.624C50.4957 495.137 50.7692 494.477 50.7692 493.789C50.7692 493.1 50.4957 492.44 50.0089 491.953C49.522 491.466 48.8616 491.192 48.1731 491.192Z" fill="#772480"/>
<path d="M38.7768 499.847H35.0305L37.0503 504.817C37.2334 505.226 37.5674 505.547 37.9822 505.714C38.3971 505.881 38.8605 505.881 39.2755 505.714C39.6904 505.548 40.0246 505.226 40.208 504.818C40.3914 504.411 40.4097 503.947 40.2592 503.526L38.7768 499.847Z" fill="#772480"/>
<rect x="53.4653" y="495" width="5" height="1.5" rx="0.75" transform="rotate(15 53.4653 495)" fill="#772480"/>
<rect width="5" height="1.5" rx="0.75" transform="matrix(0.965926 -0.258819 -0.258819 -0.965926 53.4656 492.8)" fill="#772480"/>
<path d="M33.25 543.773L40.45 539.682" stroke="black" stroke-linecap="round" stroke-linejoin="round"/>
<path d="M33.25 546.228L40.45 550.318" stroke="black" stroke-linecap="round" stroke-linejoin="round"/>
<path d="M31.1215 547.455C32.4772 547.455 33.5761 546.356 33.5761 545C33.5761 543.645 32.4772 542.546 31.1215 542.546C29.7659 542.546 28.667 543.645 28.667 545C28.667 546.356 29.7659 547.455 31.1215 547.455Z" fill="black" stroke="black" stroke-linecap="round" stroke-linejoin="round"/>
<path d="M42.5757 540.909C43.9313 540.909 45.0302 539.81 45.0302 538.455C45.0302 537.099 43.9313 536 42.5757 536C41.22 536 40.1211 537.099 40.1211 538.455C40.1211 539.81 41.22 540.909 42.5757 540.909Z" fill="black" stroke="black" stroke-linecap="round" stroke-linejoin="round"/>
<path d="M42.5757 554C43.9313 554 45.0302 552.901 45.0302 551.545C45.0302 550.19 43.9313 549.091 42.5757 549.091C41.22 549.091 40.1211 550.19 40.1211 551.545C40.1211 552.901 41.22 554 42.5757 554Z" fill="black" stroke="black" stroke-linecap="round" stroke-linejoin="round"/>
<path d="M73.3469 534.317L77.4783 536.85C77.7991 537.047 78.2031 537.047 78.5239 536.85L82.6552 534.317C82.9231 534.153 83.2743 534.273 83.3847 534.567L84.7368 538.171H71.2646L72.6174 534.567C72.7279 534.273 73.0791 534.153 73.3469 534.317Z" fill="#830890"/>
<rect x="68.65" y="538.65" width="18.7" height="14.7" rx="1.85" fill="white" stroke="#830890" stroke-width="1.3"/>
<rect x="80" y="539.293" width="13.4143" height="4" transform="rotate(90 80 539.293)" fill="#830890"/>
<path fill-rule="evenodd" clip-rule="evenodd" d="M126.381 545.439C128.54 543.28 128.54 539.779 126.381 537.619C124.221 535.46 120.72 535.46 118.561 537.619L118.363 537.818C118.358 537.823 118.353 537.828 118.348 537.833L114.834 541.348C114.638 541.543 114.322 541.543 114.126 541.348C113.931 541.152 113.931 540.836 114.126 540.64L117.291 537.476C115.122 535.461 111.73 535.509 109.619 537.619C107.46 539.779 107.46 543.28 109.619 545.439L117.287 553.107C117.309 553.128 117.331 553.148 117.353 553.167C117.748 553.5 118.339 553.481 118.711 553.109L126.381 545.439Z" fill="#772480"/>
<path fill-rule="evenodd" clip-rule="evenodd" d="M150 547.5H152.5V542.5C152.5 540.843 153.843 539.5 155.5 539.5H160.5V537C160.5 536.172 159.828 535.5 159 535.5H150C149.172 535.5 148.5 536.172 148.5 537V546C148.5 546.828 149.172 547.5 150 547.5Z" fill="#772480"/>
<path d="M152.5 547.5V548C152.776 548 153 547.776 153 547.5H152.5ZM160.5 539.5V540C160.776 540 161 539.776 161 539.5H160.5ZM152.5 547H150V548H152.5V547ZM152 542.5V547.5H153V542.5H152ZM155.5 539C153.567 539 152 540.567 152 542.5H153C153 541.119 154.119 540 155.5 540V539ZM160.5 539H155.5V540H160.5V539ZM160 537V539.5H161V537H160ZM159 536C159.552 536 160 536.448 160 537H161C161 535.895 160.105 535 159 535V536ZM150 536H159V535H150V536ZM149 537C149 536.448 149.448 536 150 536V535C148.895 535 148 535.895 148 537H149ZM149 546V537H148V546H149ZM150 547C149.448 547 149 546.552 149 546H148C148 547.105 148.895 548 150 548V547Z" fill="#772480"/>
<path d="M166 542.5H157C156.172 542.5 155.5 543.172 155.5 544V553C155.5 553.828 156.172 554.5 157 554.5H166C166.828 554.5 167.5 553.828 167.5 553V544C167.5 543.172 166.828 542.5 166 542.5Z" fill="#772480" stroke="#772480" stroke-linecap="round" stroke-linejoin="round"/>
<path d="M200.766 546.941L199.421 548.622C197.338 547.398 195.602 545.663 194.378 543.58L196.059 542.235C196.256 542.077 196.395 541.859 196.455 541.614C196.515 541.368 196.492 541.11 196.389 540.88L194.857 537.43C194.747 537.182 194.553 536.982 194.309 536.864C194.065 536.747 193.787 536.72 193.525 536.788L190.608 537.544C190.336 537.615 190.1 537.783 189.943 538.017C189.787 538.251 189.722 538.534 189.761 538.813C190.273 542.458 191.957 545.837 194.56 548.44C197.163 551.043 200.542 552.728 204.187 553.24C204.466 553.278 204.749 553.213 204.983 553.057C205.217 552.901 205.385 552.664 205.456 552.392L206.212 549.475C206.28 549.213 206.253 548.935 206.135 548.691C206.018 548.447 205.818 548.253 205.57 548.143L202.121 546.613C201.891 546.51 201.633 546.487 201.387 546.546C201.142 546.605 200.924 546.744 200.766 546.941Z" fill="black"/>
<path d="M244.013 537.216C243.486 536.689 242.631 536.689 242.104 537.216L241.108 538.212L244.599 541.703L245.595 540.706C246.122 540.179 246.122 539.324 245.595 538.797L244.013 537.216Z" fill="black"/>
<path d="M239.79 539.53L231.006 548.315L229.692 552.126C229.471 552.768 230.091 553.381 230.731 553.152L234.496 551.806L243.281 543.021L239.79 539.53Z" fill="black"/>
<path d="M236.312 553.074L246.438 553.074" stroke="black" stroke-linecap="round"/>
<path d="M280.856 535.097C281.696 534.826 282.609 535.205 283.009 535.992L284.1 538.136C284.272 538.473 284.546 538.747 284.882 538.92L287.022 540.017C287.808 540.42 288.185 541.333 287.912 542.172L287.168 544.46C287.051 544.819 287.05 545.207 287.166 545.567L287.903 547.856C288.174 548.696 287.795 549.609 287.008 550.009L284.864 551.1C284.527 551.272 284.253 551.546 284.08 551.882L282.983 554.022C282.58 554.808 281.667 555.185 280.828 554.912L278.54 554.168C278.181 554.051 277.793 554.05 277.433 554.166L275.144 554.903C274.304 555.174 273.391 554.795 272.991 554.008L271.9 551.864C271.728 551.527 271.454 551.253 271.118 551.08L268.978 549.983C268.192 549.58 267.815 548.667 268.088 547.828L268.832 545.54C268.949 545.181 268.95 544.793 268.834 544.433L268.097 542.144C267.826 541.304 268.205 540.391 268.992 539.991L271.136 538.9C271.473 538.728 271.747 538.454 271.92 538.118L273.017 535.978C273.42 535.192 274.333 534.815 275.172 535.088L277.46 535.832C277.819 535.949 278.207 535.95 278.567 535.834L280.856 535.097Z" fill="#830890"/>
<path d="M281.056 541.882L274.882 548.056" stroke="white" stroke-width="1.3" stroke-linecap="round"/>
<circle cx="275.764" cy="542.764" r="1.26394" stroke="white"/>
<circle cx="280.174" cy="547.174" r="1.26394" stroke="white"/>
<g clip-path="url(#clip0_5288_4481)">
<path fill-rule="evenodd" clip-rule="evenodd" d="M50.0566 647.327C52.6478 644.736 52.6478 640.535 50.0566 637.943C47.4654 635.352 43.2643 635.352 40.6731 637.943L40.6036 638.013C40.585 638.035 40.5654 638.056 40.5446 638.077L36.3272 642.295C35.9367 642.685 35.3035 642.685 34.913 642.295C34.5225 641.904 34.5225 641.271 34.913 640.88L38.5307 637.263C35.9361 635.377 32.2833 635.603 29.9434 637.943C27.3522 640.535 27.3522 644.736 29.9434 647.327L39.1449 656.528C39.1704 656.554 39.1967 656.578 39.2238 656.601C39.6978 657 40.4069 656.977 40.8532 656.53L50.0566 647.327Z" fill="#772480"/>
</g>
<path fill-rule="evenodd" clip-rule="evenodd" d="M84 658C90.6274 658 96 652.627 96 646C96 639.373 90.6274 634 84 634C77.3726 634 72 639.373 72 646C72 652.627 77.3726 658 84 658ZM77.6667 642C77.6667 641.448 78.1144 641 78.6667 641H89.3333C89.8856 641 90.3333 641.448 90.3333 642V642.476L83.9999 646.699L77.6667 642.476V642ZM84.3327 647.919L90.3333 643.919V650C90.3333 650.552 89.8856 651 89.3333 651H78.6667C78.1144 651 77.6667 650.552 77.6667 650V643.919L83.6671 647.919C83.8686 648.053 84.1312 648.053 84.3327 647.919Z" fill="white"/>
<path fill-rule="evenodd" clip-rule="evenodd" d="M128 658C134.627 658 140 652.627 140 646C140 639.373 134.627 634 128 634C121.373 634 116 639.373 116 646C116 652.627 121.373 658 128 658ZM122.562 645.998C122.562 643.35 124.366 641.07 127.039 640.611V645.007C127.039 645.559 127.487 646.007 128.039 646.007C128.591 646.007 129.039 645.559 129.039 645.007V639.527C129.039 638.975 128.591 638.527 128.039 638.527C123.663 638.527 120.562 641.987 120.562 645.998C120.562 650.127 123.91 653.474 128.039 653.474C131.774 653.474 134.867 650.736 135.425 647.158C135.511 646.613 135.137 646.101 134.592 646.016C134.046 645.931 133.534 646.304 133.449 646.85C133.041 649.469 130.773 651.474 128.039 651.474C125.014 651.474 122.562 649.022 122.562 645.998ZM132.831 640.796C132.831 641.348 132.383 641.796 131.831 641.796C131.278 641.796 130.831 641.348 130.831 640.796C130.831 640.243 131.278 639.796 131.831 639.796C132.383 639.796 132.831 640.243 132.831 640.796ZM133.831 644.243C134.383 644.243 134.831 643.796 134.831 643.243C134.831 642.691 134.383 642.243 133.831 642.243C133.278 642.243 132.831 642.691 132.831 643.243C132.831 643.796 133.278 644.243 133.831 644.243Z" fill="white"/>
<circle cx="172" cy="646" r="12" fill="white"/>
<path d="M168 645.796L170.718 648.667L176.381 643.334" stroke="#333333" stroke-width="2.66667" stroke-linecap="round" stroke-linejoin="round"/>
<circle cx="216" cy="646" r="12" fill="white"/>
<path d="M212 646H220.544" stroke="#333333" stroke-width="2.66667" stroke-linecap="round"/>
<path d="M46.5 595.5L45.5 595C42 596 36.5 602 36.5 602L33.5 599L32 600.6L36.8 607C40.5 600.1 46.5 595.5 46.5 595.5Z" fill="#830890"/>
<path d="M120 598.273L115.077 601.545L112 595L108.923 601.545L104 598.273L106.286 607H117.714L120 598.273Z" fill="white"/>
<path d="M76 593.5L78.472 598.437L84 599.233L80 603.074L80.944 608.5L76 605.937L71.056 608.5L72 603.074L68 599.233L73.528 598.437L76 593.5Z" fill="white"/>
<path d="M140 608L145.537 597.255L151.66 605.601L140 608Z" fill="white"/>
<path fill-rule="evenodd" clip-rule="evenodd" d="M150.435 597.107C150.041 597.912 149.356 598.478 148.95 598.685L148.518 597.802C148.757 597.68 149.28 597.259 149.57 596.666C149.711 596.379 149.791 596.065 149.77 595.731C149.749 595.4 149.627 595.018 149.314 594.592L150.087 594C150.5 594.561 150.7 595.124 150.734 595.667C150.769 596.208 150.637 596.695 150.435 597.107Z" fill="white"/>
<path fill-rule="evenodd" clip-rule="evenodd" d="M153.15 601.266C152.286 601.446 151.573 601.976 151.272 602.322L151.996 602.977C152.173 602.773 152.706 602.366 153.343 602.233C153.652 602.168 153.969 602.171 154.28 602.278C154.587 602.385 154.918 602.604 155.239 603.022L156 602.413C155.576 601.861 155.095 601.518 154.59 601.344C154.087 601.17 153.592 601.174 153.15 601.266Z" fill="white"/>
<path fill-rule="evenodd" clip-rule="evenodd" d="M152.891 599.132L150.958 600.612L150.377 599.822L152.311 598.342L152.891 599.132Z" fill="white"/>
<path d="M155.502 597.503C155.502 597.912 155.177 598.243 154.777 598.243C154.376 598.243 154.051 597.912 154.051 597.503C154.051 597.095 154.376 596.763 154.777 596.763C155.177 596.763 155.502 597.095 155.502 597.503Z" fill="white"/>
<path d="M155.018 604.905C155.018 605.313 154.694 605.645 154.293 605.645C153.893 605.645 153.568 605.313 153.568 604.905C153.568 604.496 153.893 604.164 154.293 604.164C154.694 604.164 155.018 604.496 155.018 604.905Z" fill="white"/>
<path d="M147.767 595.036C147.767 595.445 147.442 595.776 147.042 595.776C146.641 595.776 146.317 595.445 146.317 595.036C146.317 594.627 146.641 594.296 147.042 594.296C147.442 594.296 147.767 594.627 147.767 595.036Z" fill="white"/>
<path d="M1023 155L1018.5 161L1014 155L1023 155Z" fill="black"/>
<path d="M1052 155L1047.5 161L1043 155L1052 155Z" fill="#D9D9D9"/>
<path d="M1079 161L1074.5 155L1070 161L1079 161Z" fill="black"/>
<circle cx="1023" cy="101" r="9" fill="#D9D9D9"/>
<path fill-rule="evenodd" clip-rule="evenodd" d="M1023 96C1022.45 96 1022 96.4477 1022 97V101C1022 101.552 1022.45 102 1023 102C1023.55 102 1024 101.552 1024 101V97C1024 96.4477 1023.55 96 1023 96ZM1023 104C1022.45 104 1022 104.448 1022 105C1022 105.552 1022.45 106 1023 106C1023.55 106 1024 105.552 1024 105C1024 104.448 1023.55 104 1023 104Z" fill="white"/>
<circle cx="1239" cy="101" r="8.5" stroke="white"/>
<path fill-rule="evenodd" clip-rule="evenodd" d="M1239 96C1238.45 96 1238 96.4477 1238 97V101C1238 101.552 1238.45 102 1239 102C1239.55 102 1240 101.552 1240 101V97C1240 96.4477 1239.55 96 1239 96ZM1239 104C1238.45 104 1238 104.448 1238 105C1238 105.552 1238.45 106 1239 106C1239.55 106 1240 105.552 1240 105C1240 104.448 1239.55 104 1239 104Z" fill="white"/>
<circle cx="1071" cy="101" r="9" fill="#772480"/>
<path fill-rule="evenodd" clip-rule="evenodd" d="M1071 96C1070.45 96 1070 96.4477 1070 97V101C1070 101.552 1070.45 102 1071 102C1071.55 102 1072 101.552 1072 101V97C1072 96.4477 1071.55 96 1071 96ZM1071 104C1070.45 104 1070 104.448 1070 105C1070 105.552 1070.45 106 1071 106C1071.55 106 1072 105.552 1072 105C1072 104.448 1071.55 104 1071 104Z" fill="white"/>
<circle cx="1047" cy="101" r="9" fill="#D9D9D9"/>
<path d="M1044 101H1050.41" stroke="white" stroke-width="2" stroke-linecap="round"/>
<circle cx="1095" cy="101" r="9" fill="#772480"/>
<path fill-rule="evenodd" clip-rule="evenodd" d="M1091.5 97.5C1090.95 97.5 1090.5 97.9477 1090.5 98.5V99L1099.46 99C1099.47 99 1099.49 99.0003 1099.5 99.001V98.5C1099.5 97.9477 1099.05 97.5 1098.5 97.5H1091.5ZM1099.5 100.499C1099.49 100.5 1099.47 100.5 1099.46 100.5L1090.5 100.5V103.5C1090.5 104.052 1090.95 104.5 1091.5 104.5H1098.5C1099.05 104.5 1099.5 104.052 1099.5 103.5V100.499Z" fill="white"/>
<circle cx="1119" cy="101" r="9" fill="#772480"/>
<path d="M1122.89 104.081L1120.36 100.71L1125.43 100.71L1122.89 104.081Z" fill="white"/>
<path d="M1123 101C1123 98.7909 1121.21 97 1119 97C1116.79 97 1115 98.7909 1115 101C1115 103.209 1116.79 105 1119 105" stroke="white" stroke-width="1.5" stroke-linecap="round"/>
<circle cx="1143" cy="101" r="9" fill="#772480"/>
<circle cx="1140.3" cy="103.7" r="1" fill="white"/>
<circle cx="1145.8" cy="103.7" r="1" fill="white"/>
<mask id="path-62-inside-1_5288_4481" fill="white">
<path fill-rule="evenodd" clip-rule="evenodd" d="M1144.1 96.8633C1144.38 96.8633 1144.6 97.0871 1144.6 97.3633V98H1146.46C1146.64 98 1146.81 98.0968 1146.89 98.2535L1148.3 100.734V103.081C1148.3 103.357 1148.08 103.581 1147.8 103.581L1138.8 103.582C1138.52 103.582 1138.3 103.358 1138.3 103.082V97.3635C1138.3 97.0873 1138.52 96.8635 1138.8 96.8635L1144.1 96.8633ZM1146.25 99.0177H1144.6V100.888H1147.3L1146.25 99.0177Z"/>
</mask>
<path fill-rule="evenodd" clip-rule="evenodd" d="M1144.1 96.8633C1144.38 96.8633 1144.6 97.0871 1144.6 97.3633V98H1146.46C1146.64 98 1146.81 98.0968 1146.89 98.2535L1148.3 100.734V103.081C1148.3 103.357 1148.08 103.581 1147.8 103.581L1138.8 103.582C1138.52 103.582 1138.3 103.358 1138.3 103.082V97.3635C1138.3 97.0873 1138.52 96.8635 1138.8 96.8635L1144.1 96.8633ZM1146.25 99.0177H1144.6V100.888H1147.3L1146.25 99.0177Z" fill="white"/>
<path d="M1144.1 96.8633L1144.1 95.3633L1144.1 96.8633ZM1144.6 98H1143.1V99.5H1144.6V98ZM1146.89 98.2535L1148.2 97.5139L1148.2 97.5139L1146.89 98.2535ZM1148.3 100.734H1149.8V100.339L1149.61 99.9945L1148.3 100.734ZM1147.8 103.581L1147.8 102.081H1147.8L1147.8 103.581ZM1138.8 103.582L1138.8 105.082H1138.8L1138.8 103.582ZM1138.8 96.8635L1138.8 98.3635L1138.8 96.8635ZM1144.6 99.0177V97.5177H1143.1V99.0177H1144.6ZM1146.25 99.0177L1147.55 98.2788L1147.12 97.5177H1146.25V99.0177ZM1144.6 100.888H1143.1V102.388H1144.6V100.888ZM1147.3 100.888V102.388H1149.88L1148.61 100.149L1147.3 100.888ZM1146.1 97.3633C1146.1 96.2587 1145.2 95.3632 1144.1 95.3633L1144.1 98.3633C1143.55 98.3633 1143.1 97.9156 1143.1 97.3633H1146.1ZM1146.1 98V97.3633H1143.1V98H1146.1ZM1146.46 96.5H1144.6V99.5H1146.46V96.5ZM1148.2 97.5139C1147.84 96.8873 1147.18 96.5 1146.46 96.5V99.5C1146.1 99.5 1145.77 99.3063 1145.59 98.993L1148.2 97.5139ZM1149.61 99.9945L1148.2 97.5139L1145.59 98.993L1147 101.474L1149.61 99.9945ZM1149.8 103.081V100.734H1146.8V103.081H1149.8ZM1147.8 105.081C1148.91 105.081 1149.8 104.186 1149.8 103.081H1146.8C1146.8 102.529 1147.25 102.081 1147.8 102.081L1147.8 105.081ZM1138.8 105.082L1147.8 105.081L1147.8 102.081L1138.8 102.082L1138.8 105.082ZM1136.8 103.082C1136.8 104.186 1137.7 105.082 1138.8 105.082L1138.8 102.082C1139.35 102.082 1139.8 102.529 1139.8 103.082H1136.8ZM1136.8 97.3635V103.082H1139.8V97.3635H1136.8ZM1138.8 95.3635C1137.7 95.3635 1136.8 96.2589 1136.8 97.3635H1139.8C1139.8 97.9157 1139.35 98.3635 1138.8 98.3635L1138.8 95.3635ZM1144.1 95.3633L1138.8 95.3635L1138.8 98.3635L1144.1 98.3633L1144.1 95.3633ZM1144.6 100.518H1146.25V97.5177H1144.6V100.518ZM1146.1 100.888V99.0177H1143.1V100.888H1146.1ZM1147.3 99.3878H1144.6V102.388H1147.3V99.3878ZM1144.94 99.7566L1146 101.627L1148.61 100.149L1147.55 98.2788L1144.94 99.7566Z" fill="white" mask="url(#path-62-inside-1_5288_4481)"/>
<circle cx="1167" cy="101" r="9" fill="#772480"/>
<mask id="path-65-inside-2_5288_4481" fill="white">
<path fill-rule="evenodd" clip-rule="evenodd" d="M1162.25 98.1787L1167 101.344L1171.75 98.1787C1171.71 97.6597 1171.28 97.25 1170.75 97.25H1163.25C1162.72 97.25 1162.29 97.6597 1162.25 98.1787ZM1171.75 99.6193L1167.33 102.564C1167.13 102.698 1166.87 102.698 1166.67 102.564L1162.25 99.6193V103.75C1162.25 104.302 1162.7 104.75 1163.25 104.75H1170.75C1171.3 104.75 1171.75 104.302 1171.75 103.75V99.6193Z"/>
</mask>
<path fill-rule="evenodd" clip-rule="evenodd" d="M1162.25 98.1787L1167 101.344L1171.75 98.1787C1171.71 97.6597 1171.28 97.25 1170.75 97.25H1163.25C1162.72 97.25 1162.29 97.6597 1162.25 98.1787ZM1171.75 99.6193L1167.33 102.564C1167.13 102.698 1166.87 102.698 1166.67 102.564L1162.25 99.6193V103.75C1162.25 104.302 1162.7 104.75 1163.25 104.75H1170.75C1171.3 104.75 1171.75 104.302 1171.75 103.75V99.6193Z" fill="white"/>
<path d="M1162.25 98.1787L1160.76 98.0733L1160.69 98.9431L1161.42 99.4268L1162.25 98.1787ZM1167 101.344L1166.17 102.592L1167 103.146L1167.83 102.592L1167 101.344ZM1171.75 98.1787L1172.58 99.4268L1173.31 98.9431L1173.24 98.0733L1171.75 98.1787ZM1171.75 99.6193H1173.25V96.8165L1170.92 98.3712L1171.75 99.6193ZM1167.33 102.564L1166.5 101.316L1166.5 101.316L1167.33 102.564ZM1166.67 102.564L1165.84 103.812L1165.84 103.812L1166.67 102.564ZM1162.25 99.6193L1163.08 98.3712L1160.75 96.8165V99.6193H1162.25ZM1161.42 99.4268L1166.17 102.592L1167.83 100.096L1163.08 96.9306L1161.42 99.4268ZM1167.83 102.592L1172.58 99.4268L1170.92 96.9306L1166.17 100.096L1167.83 102.592ZM1170.75 98.75C1170.49 98.75 1170.27 98.5451 1170.25 98.2841L1173.24 98.0733C1173.15 96.7743 1172.07 95.75 1170.75 95.75V98.75ZM1163.25 98.75H1170.75V95.75H1163.25V98.75ZM1163.75 98.2841C1163.73 98.5451 1163.51 98.75 1163.25 98.75V95.75C1161.93 95.75 1160.85 96.7743 1160.76 98.0733L1163.75 98.2841ZM1170.92 98.3712L1166.5 101.316L1168.16 103.812L1172.58 100.867L1170.92 98.3712ZM1166.5 101.316C1166.8 101.114 1167.2 101.114 1167.5 101.316L1165.84 103.812C1166.54 104.282 1167.46 104.282 1168.16 103.812L1166.5 101.316ZM1167.5 101.316L1163.08 98.3712L1161.42 100.867L1165.84 103.812L1167.5 101.316ZM1163.75 103.75V99.6193H1160.75V103.75H1163.75ZM1163.25 103.25C1163.53 103.25 1163.75 103.474 1163.75 103.75H1160.75C1160.75 105.131 1161.87 106.25 1163.25 106.25V103.25ZM1170.75 103.25H1163.25V106.25H1170.75V103.25ZM1170.25 103.75C1170.25 103.474 1170.47 103.25 1170.75 103.25V106.25C1172.13 106.25 1173.25 105.131 1173.25 103.75H1170.25ZM1170.25 99.6193V103.75H1173.25V99.6193H1170.25Z" fill="white" mask="url(#path-65-inside-2_5288_4481)"/>
<circle cx="1191" cy="101" r="9" fill="#B2B2B2"/>
<path d="M1195.83 101.753C1195.47 104.077 1193.45 105.855 1191.03 105.855C1188.35 105.855 1186.17 103.681 1186.17 100.998C1186.17 98.3817 1188.18 96.1455 1191.03 96.1455V100.255" stroke="white" stroke-width="1.5" stroke-linecap="round" stroke-linejoin="round"/>
<circle cx="1193.87" cy="97.0967" r="0.75" fill="white"/>
<circle cx="1195.37" cy="98.9326" r="0.75" fill="white"/>
<circle cx="1215" cy="101" r="9" fill="#B2B2B2"/>
<path d="M1212 100.846L1214.04 103L1218.29 99" stroke="white" stroke-width="2" stroke-linecap="round" stroke-linejoin="round"/>
<g clip-path="url(#clip1_5288_4481)">
<mask id="path-74-inside-3_5288_4481" fill="white">
<path d="M1023.56 35.5598C1021.37 37.7467 1017.83 37.7467 1015.64 35.5598C1013.45 33.3729 1013.45 29.8271 1015.64 27.6402C1017.83 25.4533 1021.37 25.4533 1023.56 27.6402C1025.75 29.8271 1025.75 33.3729 1023.56 35.5598Z"/>
</mask>
<path d="M1022.37 34.3719C1020.84 35.9027 1018.36 35.9027 1016.83 34.3719L1014.45 36.7477C1017.3 39.5908 1021.9 39.5908 1024.75 36.7477L1022.37 34.3719ZM1016.83 34.3719C1015.3 32.841 1015.3 30.359 1016.83 28.8281L1014.45 26.4523C1011.61 29.2953 1011.61 33.9047 1014.45 36.7477L1016.83 34.3719ZM1016.83 28.8281C1018.36 27.2973 1020.84 27.2973 1022.37 28.8281L1024.75 26.4523C1021.9 23.6092 1017.3 23.6092 1014.45 26.4523L1016.83 28.8281ZM1022.37 28.8281C1023.9 30.359 1023.9 32.841 1022.37 34.3719L1024.75 36.7477C1027.59 33.9047 1027.59 29.2953 1024.75 26.4523L1022.37 28.8281Z" fill="black" mask="url(#path-74-inside-3_5288_4481)"/>
<path d="M1024.12 34.9324C1023.79 34.6044 1023.26 34.6044 1022.93 34.9324C1022.6 35.2604 1022.6 35.7923 1022.93 36.1203L1024.12 34.9324ZM1026.51 39.6964C1026.84 40.0245 1027.37 40.0245 1027.7 39.6964C1028.02 39.3684 1028.02 38.8365 1027.7 38.5085L1026.51 39.6964ZM1022.93 36.1203L1026.51 39.6964L1027.7 38.5085L1024.12 34.9324L1022.93 36.1203Z" fill="black"/>
</g>
<circle cx="1080.18" cy="32.1786" r="9.77818" stroke="black" stroke-width="2"/>
<path d="M1093.97 45.9664L1087.54 39.5391" stroke="black" stroke-width="2" stroke-linecap="round" stroke-linejoin="round"/>
<circle cx="1018" cy="225" r="2" fill="#545454"/>
<g clip-path="url(#clip2_5288_4481)">
<path fill-rule="evenodd" clip-rule="evenodd" d="M1019.49 279.832C1019.67 279.626 1019.65 279.31 1019.45 279.126C1019.24 278.943 1018.92 278.961 1018.74 279.168L1014.3 284.168L1014 284.5L1014.3 284.832L1018.74 289.832C1018.92 290.039 1019.24 290.057 1019.45 289.874C1019.65 289.69 1019.67 289.374 1019.49 289.168L1015.78 285H1073.5C1073.78 285 1074 284.776 1074 284.5C1074 284.224 1073.78 284 1073.5 284H1015.78L1019.49 279.832Z" fill="black"/>
</g>
<circle cx="1042" cy="363" r="24.5" fill="white" stroke="#E9E9E9"/>
<path fill-rule="evenodd" clip-rule="evenodd" d="M1042 353.5C1041.17 353.5 1040.5 354.172 1040.5 355V365C1040.5 365.828 1041.17 366.5 1042 366.5C1042.83 366.5 1043.5 365.828 1043.5 365V355C1043.5 354.172 1042.83 353.5 1042 353.5ZM1042 369.5C1041.17 369.5 1040.5 370.172 1040.5 371C1040.5 371.828 1041.17 372.5 1042 372.5C1042.83 372.5 1043.5 371.828 1043.5 371C1043.5 370.172 1042.83 369.5 1042 369.5Z" fill="#545454"/>
<path d="M1030.66 449.596C1028.61 447.548 1025.29 447.548 1023.24 449.596L1017.71 455.131C1015.66 457.179 1015.66 460.499 1017.71 462.547C1019.76 464.595 1023.08 464.595 1025.12 462.547L1028.56 459.108" stroke="black" stroke-width="2" stroke-linecap="round"/>
<path d="M1026.77 453.483C1028.82 455.531 1032.14 455.531 1034.19 453.483L1040.55 447.124C1042.6 445.076 1042.6 441.756 1040.55 439.708C1038.5 437.66 1035.18 437.66 1033.13 439.708L1028.96 443.878" stroke="black" stroke-width="2" stroke-linecap="round"/>
<path d="M1023.23 551.09C1023.84 550.938 1024.42 550.963 1024.98 551.166C1025.54 551.317 1026.02 551.595 1026.42 552C1026.88 552.405 1027.23 552.885 1027.48 553.441C1027.79 553.998 1027.94 554.605 1027.94 555.262C1027.94 556.526 1027.48 557.589 1026.57 558.448C1025.66 559.257 1024.55 559.662 1023.23 559.662C1021.46 559.662 1020.15 559.03 1019.29 557.766C1018.43 556.451 1018 554.782 1018 552.759C1018 550.028 1018.63 547.651 1019.9 545.628C1021.21 543.554 1023.23 542.011 1025.97 541L1027.03 542.441C1025.06 543.352 1023.59 544.49 1022.63 545.855C1021.67 547.221 1021.19 548.738 1021.19 550.407C1021.19 550.963 1021.29 551.292 1021.49 551.393C1021.74 551.494 1022.02 551.494 1022.32 551.393L1023.23 551.09ZM1035.37 551.09C1036.54 550.837 1037.6 551.14 1038.56 552C1039.52 552.86 1040 553.947 1040 555.262C1040 556.526 1039.54 557.589 1038.63 558.448C1037.77 559.257 1036.69 559.662 1035.37 559.662C1033.6 559.662 1032.26 559.03 1031.35 557.766C1030.49 556.451 1030.06 554.782 1030.06 552.759C1030.06 550.028 1030.72 547.651 1032.03 545.628C1033.35 543.554 1035.37 542.011 1038.1 541L1039.17 542.441C1037.19 543.352 1035.7 544.49 1034.69 545.855C1033.73 547.221 1033.25 548.738 1033.25 550.407C1033.25 550.963 1033.35 551.292 1033.55 551.393C1033.8 551.494 1034.11 551.494 1034.46 551.393L1035.37 551.09Z" fill="white"/>
<path d="M1065.23 551.09C1065.84 550.938 1066.42 550.963 1066.98 551.166C1067.54 551.317 1068.02 551.595 1068.42 552C1068.88 552.405 1069.23 552.885 1069.48 553.441C1069.79 553.998 1069.94 554.605 1069.94 555.262C1069.94 556.526 1069.48 557.589 1068.57 558.448C1067.66 559.257 1066.55 559.662 1065.23 559.662C1063.46 559.662 1062.15 559.03 1061.29 557.766C1060.43 556.451 1060 554.782 1060 552.759C1060 550.028 1060.63 547.651 1061.9 545.628C1063.21 543.554 1065.23 542.011 1067.97 541L1069.03 542.441C1067.06 543.352 1065.59 544.49 1064.63 545.855C1063.67 547.221 1063.19 548.738 1063.19 550.407C1063.19 550.963 1063.29 551.292 1063.49 551.393C1063.74 551.494 1064.02 551.494 1064.32 551.393L1065.23 551.09ZM1077.37 551.09C1078.54 550.837 1079.6 551.14 1080.56 552C1081.52 552.86 1082 553.947 1082 555.262C1082 556.526 1081.54 557.589 1080.63 558.448C1079.77 559.257 1078.69 559.662 1077.37 559.662C1075.6 559.662 1074.26 559.03 1073.35 557.766C1072.49 556.451 1072.06 554.782 1072.06 552.759C1072.06 550.028 1072.72 547.651 1074.03 545.628C1075.35 543.554 1077.37 542.011 1080.1 541L1081.17 542.441C1079.19 543.352 1077.7 544.49 1076.69 545.855C1075.73 547.221 1075.25 548.738 1075.25 550.407C1075.25 550.963 1075.35 551.292 1075.55 551.393C1075.8 551.494 1076.11 551.494 1076.46 551.393L1077.37 551.09Z" fill="#CCCCCC"/>
<circle cx="350" cy="530" r="32" fill="#FAE300"/>
<path d="M350.998 515.858C342.497 515.858 335.607 521.307 335.607 528.027C335.607 532.402 338.528 536.235 342.91 538.381C342.591 539.583 341.744 542.736 341.575 543.41C341.367 544.247 341.882 544.236 342.219 544.011C342.484 543.834 346.438 541.147 348.143 539.987C349.089 540.127 350.044 540.197 351 540.197C359.502 540.197 366.391 534.747 366.391 528.027C366.391 521.307 359.5 515.858 351 515.858" fill="#391B1B"/>
<circle cx="434" cy="530" r="32" fill="#3F7FD1"/>
<path d="M439.534 532.321L440.313 527.048H435.438V523.628C435.438 522.185 436.119 520.777 438.302 520.777H440.519V516.288C440.519 516.288 438.507 515.932 436.584 515.932C432.569 515.932 429.944 518.457 429.944 523.029V527.048H425.48V532.321H429.944V545.069C431.829 545.069 433.55 545.069 435.438 545.069V532.321H439.534Z" fill="white"/>
<circle cx="518" cy="530" r="32" fill="#E9E9E9"/>
<path d="M519.659 527.596C517.612 525.548 514.291 525.548 512.243 527.596L506.708 533.131C504.66 535.179 504.66 538.499 506.708 540.547C508.756 542.595 512.076 542.595 514.124 540.547L517.563 537.108" stroke="#707070" stroke-width="2" stroke-linecap="round"/>
<path d="M515.774 531.483C517.821 533.531 521.142 533.531 523.19 531.483L529.549 525.124C531.597 523.076 531.597 519.756 529.549 517.708C527.501 515.66 524.181 515.66 522.133 517.708L517.963 521.878" stroke="#707070" stroke-width="2" stroke-linecap="round"/>
<circle cx="665.994" cy="39.2634" r="16.7698" transform="rotate(-180 665.994 39.2634)" stroke="black" stroke-width="2"/>
<path d="M679.136 21.0002C681.144 22.0817 683.879 24.9491 684.866 26.9235" stroke="black" stroke-width="2" stroke-linecap="round"/>
<path d="M652.853 21.0002C650.846 22.0817 648.111 24.9491 647.123 26.9235" stroke="black" stroke-width="2" stroke-linecap="round"/>
<circle r="1" transform="matrix(-1 0 0 1 665.994 39.2635)" fill="black" stroke="black" stroke-width="1.94884"/>
<path d="M655.503 52.7324L650.995 58.9878" stroke="black" stroke-width="2" stroke-linecap="round"/>
<path d="M676.485 52.7324L680.993 58.9878" stroke="black" stroke-width="2" stroke-linecap="round"/>
<path d="M665.994 38.3848L665.994 29.6016" stroke="black" stroke-width="2" stroke-linecap="round"/>
<path d="M711 46.25L722.25 35" stroke="black" stroke-width="2" stroke-linecap="round" stroke-linejoin="round"/>
<path d="M711 56.25L732.25 35" stroke="black" stroke-width="2" stroke-linecap="round" stroke-linejoin="round"/>
<path d="M718.5 58.75L741 36.25" stroke="black" stroke-width="2" stroke-linecap="round" stroke-linejoin="round"/>
<path d="M729.75 58.75L741 47.5" stroke="black" stroke-width="2" stroke-linecap="round" stroke-linejoin="round"/>
<path d="M714 28.7504C714 28.7504 715 21.2599 718 22.2599C721 23.2599 728 28.7504 728 28.7504C728 28.7504 722.625 28.7504 720.5 28.7504C718.375 28.7504 714 28.7504 714 28.7504Z" stroke="black" stroke-width="2" stroke-linecap="round" stroke-linejoin="round"/>
<path d="M738 28.7504C738 28.7504 737 21.2599 734 22.2599C731 23.2599 724 28.7504 724 28.7504C724 28.7504 729.375 28.7504 731.5 28.7504C733.625 28.7504 738 28.7504 738 28.7504Z" stroke="black" stroke-width="2" stroke-linecap="round" stroke-linejoin="round"/>
<path d="M741 35V58.75H711V35" stroke="black" stroke-width="2" stroke-linecap="round" stroke-linejoin="round"/>
<path d="M744.75 28.75H707.25V35H744.75V28.75Z" stroke="black" stroke-width="2" stroke-linecap="round" stroke-linejoin="round"/>
<g clip-path="url(#clip3_5288_4481)">
<mask id="path-113-inside-4_5288_4481" fill="white">
<path d="M672.056 201.943C674.647 204.535 674.647 208.736 672.056 211.327L662.853 220.53C662.407 220.977 661.697 221 661.223 220.601C661.196 220.578 661.17 220.554 661.145 220.528L651.943 211.327C649.352 208.736 649.352 204.535 651.943 201.943C654.534 199.352 658.735 199.352 661.326 201.943L662 202.617L662.673 201.943C665.264 199.352 669.465 199.352 672.056 201.943Z"/>
</mask>
<path d="M672.056 211.327L670.642 209.913L672.056 211.327ZM672.056 201.943L673.47 200.529V200.529L672.056 201.943ZM662.853 220.53L664.267 221.944L664.267 221.944L662.853 220.53ZM661.223 220.601L662.512 219.071L662.509 219.068L661.223 220.601ZM661.145 220.528L662.559 219.114L661.145 220.528ZM651.943 211.327L653.357 209.913L653.357 209.913L651.943 211.327ZM651.943 201.943L650.529 200.529L650.529 200.529L651.943 201.943ZM661.326 201.943L662.741 200.529V200.529L661.326 201.943ZM662 202.617L660.585 204.031L662 205.445L663.414 204.031L662 202.617ZM662.673 201.943L661.259 200.529L661.259 200.529L662.673 201.943ZM673.47 212.741C676.843 209.369 676.843 203.901 673.47 200.529L670.642 203.358C672.452 205.168 672.452 208.103 670.642 209.913L673.47 212.741ZM664.267 221.944L673.47 212.741L670.642 209.913L661.439 219.116L664.267 221.944ZM659.935 222.13C661.196 223.193 663.08 223.132 664.267 221.944L661.439 219.116C661.733 218.822 662.199 218.807 662.512 219.071L659.935 222.13ZM662.509 219.068C662.526 219.083 662.543 219.098 662.559 219.114L659.73 221.943C659.797 222.009 659.867 222.073 659.938 222.133L662.509 219.068ZM662.559 219.114L653.357 209.913L650.529 212.741L659.73 221.943L662.559 219.114ZM653.357 209.913C651.547 208.103 651.547 205.168 653.357 203.358L650.529 200.529C647.157 203.901 647.157 209.369 650.529 212.741L653.357 209.913ZM653.357 203.358C655.167 201.547 658.102 201.547 659.912 203.358L662.741 200.529C659.368 197.157 653.901 197.157 650.529 200.529L653.357 203.358ZM659.912 203.358L660.585 204.031L663.414 201.202L662.741 200.529L659.912 203.358ZM661.259 200.529L660.585 201.202L663.414 204.031L664.087 203.358L661.259 200.529ZM673.47 200.529C670.098 197.157 664.631 197.157 661.259 200.529L664.087 203.358C665.897 201.547 668.832 201.547 670.642 203.358L673.47 200.529Z" fill="black" mask="url(#path-113-inside-4_5288_4481)"/>
<path d="M663.764 203.683C664.155 203.292 664.155 202.659 663.764 202.268C663.374 201.878 662.741 201.878 662.35 202.268L663.764 203.683ZM658.133 206.486C657.742 206.876 657.742 207.51 658.133 207.9C658.523 208.291 659.157 208.291 659.547 207.9L658.133 206.486ZM662.35 202.268L660.242 204.377L661.656 205.791L663.764 203.683L662.35 202.268ZM660.242 204.377L658.133 206.486L659.547 207.9L661.656 205.791L660.242 204.377Z" fill="black"/>
</g>
<g clip-path="url(#clip4_5288_4481)">
<mask id="path-116-inside-5_5288_4481" fill="white">
<path d="M800.056 201.943C802.647 204.535 802.647 208.736 800.056 211.327L790.853 220.53C790.407 220.977 789.697 221 789.223 220.601C789.196 220.578 789.17 220.554 789.145 220.528L779.943 211.327C777.352 208.736 777.352 204.535 779.943 201.943C782.534 199.352 786.735 199.352 789.326 201.943L790 202.617L790.673 201.943C793.264 199.352 797.465 199.352 800.056 201.943Z"/>
</mask>
<path d="M800.056 211.327L798.642 209.913L800.056 211.327ZM800.056 201.943L801.47 200.529V200.529L800.056 201.943ZM790.853 220.53L792.267 221.944L792.267 221.944L790.853 220.53ZM789.223 220.601L790.512 219.071L790.509 219.068L789.223 220.601ZM789.145 220.528L790.559 219.114L789.145 220.528ZM779.943 211.327L781.357 209.913L781.357 209.913L779.943 211.327ZM779.943 201.943L778.529 200.529L778.529 200.529L779.943 201.943ZM789.326 201.943L790.741 200.529V200.529L789.326 201.943ZM790 202.617L788.585 204.031L790 205.445L791.414 204.031L790 202.617ZM790.673 201.943L789.259 200.529L789.259 200.529L790.673 201.943ZM801.47 212.741C804.843 209.369 804.843 203.901 801.47 200.529L798.642 203.358C800.452 205.168 800.452 208.103 798.642 209.913L801.47 212.741ZM792.267 221.944L801.47 212.741L798.642 209.913L789.439 219.116L792.267 221.944ZM787.935 222.13C789.196 223.193 791.08 223.132 792.267 221.944L789.439 219.116C789.733 218.822 790.199 218.807 790.512 219.071L787.935 222.13ZM790.509 219.068C790.526 219.083 790.543 219.098 790.559 219.114L787.73 221.943C787.797 222.009 787.867 222.073 787.938 222.133L790.509 219.068ZM790.559 219.114L781.357 209.913L778.529 212.741L787.73 221.943L790.559 219.114ZM781.357 209.913C779.547 208.103 779.547 205.168 781.357 203.358L778.529 200.529C775.157 203.901 775.157 209.369 778.529 212.741L781.357 209.913ZM781.357 203.358C783.167 201.547 786.102 201.547 787.912 203.358L790.741 200.529C787.368 197.157 781.901 197.157 778.529 200.529L781.357 203.358ZM787.912 203.358L788.585 204.031L791.414 201.202L790.741 200.529L787.912 203.358ZM789.259 200.529L788.585 201.202L791.414 204.031L792.087 203.358L789.259 200.529ZM801.47 200.529C798.098 197.157 792.631 197.157 789.259 200.529L792.087 203.358C793.897 201.547 796.832 201.547 798.642 203.358L801.47 200.529Z" fill="white" mask="url(#path-116-inside-5_5288_4481)"/>
<path d="M791.764 203.683C792.155 203.292 792.155 202.659 791.764 202.268C791.374 201.878 790.741 201.878 790.35 202.268L791.764 203.683ZM786.133 206.486C785.742 206.876 785.742 207.51 786.133 207.9C786.523 208.291 787.157 208.291 787.547 207.9L786.133 206.486ZM790.35 202.268L788.242 204.377L789.656 205.791L791.764 203.683L790.35 202.268ZM788.242 204.377L786.133 206.486L787.547 207.9L789.656 205.791L788.242 204.377Z" fill="white"/>
</g>
<path d="M698 208L706 204" stroke="black" stroke-width="2" stroke-linecap="round" stroke-linejoin="round"/>
<path d="M698 212L706 216" stroke="black" stroke-width="2" stroke-linecap="round" stroke-linejoin="round"/>
<path d="M694.5 213.5C696.433 213.5 698 211.933 698 210C698 208.067 696.433 206.5 694.5 206.5C692.567 206.5 691 208.067 691 210C691 211.933 692.567 213.5 694.5 213.5Z" stroke="black" stroke-width="2" stroke-linecap="round" stroke-linejoin="round"/>
<path d="M709.5 206C711.433 206 713 204.433 713 202.5C713 200.567 711.433 199 709.5 199C707.567 199 706 200.567 706 202.5C706 204.433 707.567 206 709.5 206Z" stroke="black" stroke-width="2" stroke-linecap="round" stroke-linejoin="round"/>
<path d="M709.5 221C711.433 221 713 219.433 713 217.5C713 215.567 711.433 214 709.5 214C707.567 214 706 215.567 706 217.5C706 219.433 707.567 221 709.5 221Z" stroke="black" stroke-width="2" stroke-linecap="round" stroke-linejoin="round"/>
<path d="M736.122 219.9L737.327 204.9H754.566L755.772 219.9H736.122Z" stroke="black" stroke-width="1.8"/>
<path d="M749.599 207.6V202.8C749.599 200.812 747.988 199.2 745.999 199.2V199.2C744.011 199.2 742.399 200.812 742.399 202.8V207.6" stroke="black" stroke-width="1.8" stroke-linecap="round"/>
<path d="M657 158.231L660.568 162L668 155" stroke="#CCCCCC" stroke-width="2" stroke-linecap="round" stroke-linejoin="round"/>
<g clip-path="url(#clip5_5288_4481)">
<line x1="690" y1="158.5" x2="701" y2="158.5" stroke="#772480" stroke-width="2" stroke-linecap="round"/>
<line x1="695.5" y1="153" x2="695.5" y2="164" stroke="#772480" stroke-width="2" stroke-linecap="round"/>
</g>
<line x1="723" y1="158.5" x2="734" y2="158.5" stroke="#772480" stroke-width="2" stroke-linecap="round"/>
<path d="M763.312 152.524C763.713 152.144 764.346 152.161 764.726 152.562C765.106 152.963 765.089 153.596 764.688 153.976L763.312 152.524ZM758.458 158.5L757.771 159.226L757.004 158.5L757.771 157.774L758.458 158.5ZM764.688 163.024C765.089 163.404 765.106 164.037 764.726 164.438C764.346 164.839 763.713 164.856 763.312 164.476L764.688 163.024ZM764.688 153.976L759.146 159.226L757.771 157.774L763.312 152.524L764.688 153.976ZM759.146 157.774L764.688 163.024L763.312 164.476L757.771 159.226L759.146 157.774Z" fill="white"/>
<path d="M792.146 152.524C791.745 152.144 791.112 152.161 790.732 152.562C790.353 152.963 790.37 153.596 790.771 153.976L792.146 152.524ZM797 158.5L797.688 159.226L798.454 158.5L797.688 157.774L797 158.5ZM790.771 163.024C790.37 163.404 790.353 164.037 790.732 164.438C791.112 164.839 791.745 164.856 792.146 164.476L790.771 163.024ZM790.771 153.976L796.312 159.226L797.688 157.774L792.146 152.524L790.771 153.976ZM796.312 157.774L790.771 163.024L792.146 164.476L797.688 159.226L796.312 157.774Z" fill="white"/>
<path d="M652.708 92.2929C652.317 91.9024 651.684 91.9024 651.293 92.2929C650.903 92.6834 650.903 93.3166 651.293 93.7071L652.708 92.2929ZM667.293 109.707C667.684 110.098 668.317 110.098 668.708 109.707C669.098 109.317 669.098 108.683 668.708 108.293L667.293 109.707ZM651.293 93.7071L667.293 109.707L668.708 108.293L652.708 92.2929L651.293 93.7071Z" fill="black"/>
<path d="M667.293 92.2929C667.683 91.9024 668.317 91.9024 668.707 92.2929C669.098 92.6834 669.098 93.3166 668.707 93.7071L667.293 92.2929ZM652.707 109.707C652.317 110.098 651.683 110.098 651.293 109.707C650.902 109.317 650.902 108.683 651.293 108.293L652.707 109.707ZM668.707 93.7071L652.707 109.707L651.293 108.293L667.293 92.2929L668.707 93.7071Z" fill="black"/>
<path d="M703.708 92.2929C703.317 91.9024 702.684 91.9024 702.293 92.2929C701.903 92.6834 701.903 93.3166 702.293 93.7071L703.708 92.2929ZM718.293 109.707C718.684 110.098 719.317 110.098 719.708 109.707C720.098 109.317 720.098 108.683 719.708 108.293L718.293 109.707ZM702.293 93.7071L718.293 109.707L719.708 108.293L703.708 92.2929L702.293 93.7071Z" fill="white"/>
<path d="M718.293 92.2929C718.683 91.9024 719.317 91.9024 719.707 92.2929C720.098 92.6834 720.098 93.3166 719.707 93.7071L718.293 92.2929ZM703.707 109.707C703.317 110.098 702.683 110.098 702.293 109.707C701.902 109.317 701.902 108.683 702.293 108.293L703.707 109.707ZM719.707 93.7071L703.707 109.707L702.293 108.293L718.293 92.2929L719.707 93.7071Z" fill="white"/>
<path fill-rule="evenodd" clip-rule="evenodd" d="M27.6263 152.332C27.4428 152.126 27.4614 151.81 27.6678 151.626C27.8742 151.443 28.1902 151.461 28.3737 151.668L32.3737 156.168L32.669 156.5L32.3737 156.832L28.3737 161.332C28.1902 161.539 27.8742 161.557 27.6678 161.374C27.4614 161.19 27.4428 160.874 27.6263 160.668L30.8866 157L20.5 157C20.2239 157 20 156.776 20 156.5C20 156.224 20.2239 156 20.5 156L30.8866 156L27.6263 152.332Z" fill="black"/>
<path fill-rule="evenodd" clip-rule="evenodd" d="M131.626 152.332C131.443 152.126 131.461 151.81 131.668 151.626C131.874 151.443 132.19 151.461 132.374 151.668L136.374 156.168L136.669 156.5L136.374 156.832L132.374 161.332C132.19 161.539 131.874 161.557 131.668 161.374C131.461 161.19 131.443 160.874 131.626 160.668L134.887 157L124.5 157C124.224 157 124 156.776 124 156.5C124 156.224 124.224 156 124.5 156L134.887 156L131.626 152.332Z" fill="#772480"/>
<path d="M47.354 150.646C47.1588 150.451 46.8422 150.451 46.6469 150.646C46.4517 150.842 46.4517 151.158 46.6469 151.354L47.354 150.646ZM57.6469 162.354C57.8422 162.549 58.1588 162.549 58.354 162.354C58.5493 162.158 58.5493 161.842 58.354 161.646L57.6469 162.354ZM46.6469 151.354L57.6469 162.354L58.354 161.646L47.354 150.646L46.6469 151.354Z" fill="black"/>
<path d="M57.6464 150.646C57.8417 150.451 58.1583 150.451 58.3536 150.646C58.5488 150.842 58.5488 151.158 58.3536 151.354L57.6464 150.646ZM47.3536 162.354C47.1583 162.549 46.8417 162.549 46.6464 162.354C46.4512 162.158 46.4512 161.842 46.6464 161.646L47.3536 162.354ZM58.3536 151.354L47.3536 162.354L46.6464 161.646L57.6464 150.646L58.3536 151.354Z" fill="black"/>
<path d="M157 150.5C157 150.224 156.777 150 156.5 150C156.224 150 156 150.224 156 150.5L157 150.5ZM156 162.5C156 162.776 156.224 163 156.5 163C156.777 163 157 162.776 157 162.5L156 162.5ZM156 150.5L156 162.5L157 162.5L157 150.5L156 150.5Z" fill="#772480"/>
<path d="M150.5 156.999C150.224 156.999 150 156.775 150 156.499C150 156.223 150.224 155.999 150.5 155.999V156.999ZM162.5 155.999C162.776 155.999 163 156.223 163 156.499C163 156.775 162.776 156.999 162.5 156.999V155.999ZM150.5 155.999H162.5V156.999H150.5V155.999Z" fill="#772480"/>
<path d="M72.5 156.692L76.3919 161L84.5 153" stroke="black" stroke-linecap="round" stroke-linejoin="round"/>
<path d="M110.854 154.354C111.049 154.158 111.049 153.842 110.854 153.646C110.658 153.451 110.342 153.451 110.146 153.646L110.854 154.354ZM104.5 160L104.146 160.354L104.5 160.707L104.854 160.354L104.5 160ZM98.8536 153.646C98.6583 153.451 98.3417 153.451 98.1464 153.646C97.9512 153.842 97.9512 154.158 98.1464 154.354L98.8536 153.646ZM110.146 153.646L104.146 159.646L104.854 160.354L110.854 154.354L110.146 153.646ZM104.854 159.646L98.8536 153.646L98.1464 154.354L104.146 160.354L104.854 159.646Z" fill="black"/>
<line x1="63.5" y1="95" x2="82.5" y2="95" stroke="black" stroke-linecap="round"/>
<line x1="73" y1="104.5" x2="73" y2="85.5" stroke="black" stroke-linecap="round"/>
<line x1="423.5" y1="95" x2="442.5" y2="95" stroke="black" stroke-linecap="round"/>
<path d="M42 94.5123L34.0302 102.482C31.766 104.746 27.9623 104.746 25.6981 102.482C23.434 100.218 23.434 96.4142 25.6981 94.1501L32.7623 87.0859C34.3925 85.4557 36.9283 85.4557 38.5585 87.0859C40.1887 88.7161 40.1887 91.252 38.5585 92.8821L32.0377 99.3123C31.1321 100.218 29.683 100.218 28.8679 99.3123C27.9623 98.4067 27.9623 96.9576 28.8679 96.1425L34.3019 90.7086" stroke="black" stroke-linecap="round" stroke-linejoin="round"/>
<g clip-path="url(#clip6_5288_4481)">
<rect x="103.5" y="87" width="19" height="17" rx="2.5" stroke="black"/>
<path d="M107.5 85.5V88.5" stroke="black" stroke-linecap="round"/>
<path d="M118.5 85.5V88.5" stroke="black" stroke-linecap="round"/>
<path d="M104 92L122 92" stroke="black" stroke-linecap="round"/>
</g>
<g clip-path="url(#clip7_5288_4481)">
<rect x="143.5" y="86" width="19" height="18" rx="2.5" stroke="black"/>
<path d="M143.236 98.8941C143.023 99.0709 142.995 99.3862 143.172 99.5983C143.348 99.8104 143.664 99.8391 143.876 99.6623L143.236 98.8941ZM162.19 101.375C162.428 101.516 162.735 101.437 162.875 101.199C163.015 100.962 162.937 100.655 162.699 100.514L162.19 101.375ZM149.681 94.1741L149.36 93.79L149.681 94.1741ZM143.876 99.6623L150.001 94.5582L149.36 93.79L143.236 98.8941L143.876 99.6623ZM150.575 94.5119L162.19 101.375L162.699 100.514L151.084 93.651L150.575 94.5119ZM150.001 94.5582C150.163 94.4229 150.393 94.4043 150.575 94.5119L151.084 93.651C150.538 93.3283 149.848 93.384 149.36 93.79L150.001 94.5582Z" fill="black"/>
<circle cx="157.444" cy="91.0552" r="1.72222" stroke="black"/>
</g>
<rect x="185" y="91.5" width="16" height="13" rx="2.5" stroke="black"/>
<path d="M193 96.2764L193 99.7244" stroke="black" stroke-linecap="round"/>
<path d="M188.521 91.0714C188.521 90.5939 188.521 89.8487 188.521 89.8487C188.521 89.8487 188.521 89.8487 188.521 89.8487C188.521 87.447 190.526 85.5 193 85.5C194.989 85.5 196.675 86.7585 197.26 88.5" stroke="black" stroke-linecap="round"/>
<rect x="225" y="91.5" width="16" height="13" rx="2.5" stroke="black"/>
<path d="M233 96.2764L233 99.7244" stroke="black" stroke-linecap="round"/>
<path d="M237.5 92V90C237.5 87.5147 235.485 85.5 233 85.5V85.5C230.515 85.5 228.5 87.5147 228.5 90V92" stroke="black"/>
<path d="M264 91C264 89.8954 264.895 89 266 89H277C278.105 89 279 89.8954 279 91V102C279 103.105 278.105 104 277 104H266C264.895 104 264 103.105 264 102V91Z" stroke="black"/>
<path d="M268 86H279C280.657 86 282 87.3431 282 89V100" stroke="black" stroke-linecap="round"/>
<g clip-path="url(#clip8_5288_4481)">
<mask id="path-167-inside-6_5288_4481" fill="white">
<path d="M321.38 87.6195C323.54 89.7788 323.54 93.2797 321.38 95.439L313.711 103.109C313.339 103.481 312.748 103.5 312.353 103.167C312.33 103.148 312.308 103.128 312.287 103.107L304.619 95.439C302.46 93.2797 302.46 89.7788 304.619 87.6195C306.779 85.4602 310.279 85.4602 312.439 87.6195L313 88.1804L313.561 87.6195C315.72 85.4602 319.221 85.4602 321.38 87.6195Z"/>
</mask>
<path d="M313.764 88.833C313.959 88.6378 313.959 88.3212 313.764 88.1259C313.569 87.9307 313.252 87.9307 313.057 88.1259L313.764 88.833ZM309.542 91.6404C309.347 91.8357 309.347 92.1523 309.542 92.3475C309.738 92.5428 310.054 92.5428 310.25 92.3475L309.542 91.6404ZM313.057 88.1259L309.542 91.6404L310.25 92.3475L313.764 88.833L313.057 88.1259ZM321.38 95.439L320.673 94.7319L321.38 95.439ZM321.38 87.6195L322.087 86.9124V86.9124L321.38 87.6195ZM313.711 103.109L314.418 103.816H314.418L313.711 103.109ZM312.353 103.167L312.997 102.403L312.995 102.401L312.353 103.167ZM312.287 103.107L311.58 103.814L312.287 103.107ZM304.619 95.439L305.326 94.7319V94.7319L304.619 95.439ZM304.619 87.6195L303.912 86.9124V86.9124L304.619 87.6195ZM312.439 87.6195L313.146 86.9124L313.146 86.9124L312.439 87.6195ZM313 88.1804L312.293 88.8875L313 89.5946L313.707 88.8875L313 88.1804ZM313.561 87.6195L314.268 88.3266L313.561 87.6195ZM322.087 96.1462C324.637 93.5963 324.637 89.4622 322.087 86.9124L320.673 88.3266C322.442 90.0954 322.442 92.9632 320.673 94.7319L322.087 96.1462ZM314.418 103.816L322.087 96.1462L320.673 94.7319L313.004 102.401L314.418 103.816ZM311.709 103.932C312.497 104.597 313.676 104.558 314.418 103.816L313.004 102.401C313.003 102.402 313.003 102.402 313.002 102.403C313.002 102.403 313.002 102.403 313.002 102.403C313.002 102.403 313.002 102.403 313.002 102.403C313.002 102.403 313.002 102.403 313.002 102.403C313.003 102.403 313.002 102.403 313 102.403C312.999 102.403 312.998 102.403 312.997 102.403C312.997 102.403 312.997 102.403 312.998 102.403C312.998 102.403 312.998 102.403 312.997 102.403L311.709 103.932ZM312.995 102.401C312.995 102.401 312.995 102.4 312.994 102.4L311.58 103.814C311.622 103.856 311.665 103.896 311.71 103.933L312.995 102.401ZM312.994 102.4L305.326 94.7319L303.912 96.1462L311.58 103.814L312.994 102.4ZM305.326 94.7319C303.558 92.9632 303.558 90.0954 305.326 88.3266L303.912 86.9124C301.362 89.4622 301.362 93.5963 303.912 96.1462L305.326 94.7319ZM305.326 88.3266C307.095 86.5578 309.963 86.5578 311.732 88.3266L313.146 86.9124C310.596 84.3625 306.462 84.3625 303.912 86.9124L305.326 88.3266ZM311.732 88.3266L312.293 88.8875L313.707 87.4733L313.146 86.9124L311.732 88.3266ZM312.854 86.9124L312.293 87.4733L313.707 88.8875L314.268 88.3266L312.854 86.9124ZM322.087 86.9124C319.538 84.3625 315.403 84.3625 312.854 86.9124L314.268 88.3266C316.037 86.5578 318.904 86.5578 320.673 88.3266L322.087 86.9124Z" fill="black" mask="url(#path-167-inside-6_5288_4481)"/>
</g>
<path d="M345.542 90.5L360.369 90.5L361.414 103.5L344.498 103.5L345.542 90.5Z" stroke="black"/>
<path d="M356 93V89C356 87.3431 354.657 86 353 86V86C351.343 86 350 87.3431 350 89V93" stroke="black" stroke-linecap="round"/>
<path d="M402 98.5C402 98.2239 401.776 98 401.5 98C401.224 98 401 98.2239 401 98.5H402ZM385 98.5C385 98.2239 384.776 98 384.5 98C384.224 98 384 98.2239 384 98.5H385ZM401 98.5V101.5H402V98.5H401ZM399.5 103H386.5V104H399.5V103ZM385 101.5V98.5H384V101.5H385ZM386.5 103C385.672 103 385 102.328 385 101.5H384C384 102.881 385.119 104 386.5 104V103ZM401 101.5C401 102.328 400.328 103 399.5 103V104C400.881 104 402 102.881 402 101.5H401Z" fill="black"/>
<path d="M397 95L393 99L389 95" stroke="black" stroke-linecap="round"/>
<line x1="393" y1="86.5" x2="393" y2="98.5" stroke="black" stroke-linecap="round"/>
<path d="M466.5 97.5H465C464.172 97.5 463.5 96.8284 463.5 96V87C463.5 86.1716 464.172 85.5 465 85.5H474C474.828 85.5 475.5 86.1716 475.5 87V88.5" stroke="black" stroke-linecap="round" stroke-linejoin="round"/>
<path d="M481 92.5H472C471.172 92.5 470.5 93.1716 470.5 94V103C470.5 103.828 471.172 104.5 472 104.5H481C481.828 104.5 482.5 103.828 482.5 103V94C482.5 93.1716 481.828 92.5 481 92.5Z" stroke="black" stroke-linecap="round" stroke-linejoin="round"/>
<path d="M522.354 90.3536C522.549 90.1583 522.549 89.8417 522.354 89.6464C522.158 89.4512 521.842 89.4512 521.646 89.6464L522.354 90.3536ZM513 99L512.646 99.3536L513 99.7071L513.354 99.3536L513 99ZM504.354 89.6464C504.158 89.4512 503.842 89.4512 503.646 89.6464C503.451 89.8417 503.451 90.1583 503.646 90.3536L504.354 89.6464ZM521.646 89.6464L512.646 98.6464L513.354 99.3536L522.354 90.3536L521.646 89.6464ZM513.354 98.6464L504.354 89.6464L503.646 90.3536L512.646 99.3536L513.354 98.6464Z" fill="black"/>
<path d="M23.8439 211.137C23.6434 210.947 23.3269 210.956 23.137 211.156C22.9471 211.357 22.9557 211.673 23.1561 211.863L23.8439 211.137ZM28.25 216L28.5939 216.363L28.977 216L28.5939 215.637L28.25 216ZM23.1561 220.137C22.9557 220.327 22.9471 220.643 23.137 220.844C23.3269 221.044 23.6434 221.053 23.8439 220.863L23.1561 220.137ZM23.1561 211.863L27.9061 216.363L28.5939 215.637L23.8439 211.137L23.1561 211.863ZM27.9061 215.637L23.1561 220.137L23.8439 220.863L28.5939 216.363L27.9061 215.637Z" fill="black"/>
<path d="M200.156 211.137C200.357 210.947 200.673 210.956 200.863 211.156C201.053 211.357 201.044 211.673 200.844 211.863L200.156 211.137ZM195.75 216L195.406 216.363L195.023 216L195.406 215.637L195.75 216ZM200.844 220.137C201.044 220.327 201.053 220.643 200.863 220.844C200.673 221.044 200.357 221.053 200.156 220.863L200.844 220.137ZM200.844 211.863L196.094 216.363L195.406 215.637L200.156 211.137L200.844 211.863ZM196.094 215.637L200.844 220.137L200.156 220.863L195.406 216.363L196.094 215.637Z" fill="black"/>
<path d="M169.844 211.137C169.643 210.947 169.327 210.956 169.137 211.156C168.947 211.357 168.956 211.673 169.156 211.863L169.844 211.137ZM174.25 216L174.594 216.363L174.977 216L174.594 215.637L174.25 216ZM169.156 220.137C168.956 220.327 168.947 220.643 169.137 220.844C169.327 221.044 169.643 221.053 169.844 220.863L169.156 220.137ZM169.156 211.863L173.906 216.363L174.594 215.637L169.844 211.137L169.156 211.863ZM173.906 215.637L169.156 220.137L169.844 220.863L174.594 216.363L173.906 215.637Z" fill="#707070"/>
<path d="M50.3681 218.879C50.1729 219.074 50.1729 219.391 50.3681 219.586C50.5634 219.781 50.88 219.781 51.0752 219.586L50.3681 218.879ZM57.5421 213.119C57.7374 212.924 57.7374 212.607 57.5421 212.412C57.3469 212.217 57.0303 212.217 56.835 212.412L57.5421 213.119ZM56.9248 219.588C57.12 219.783 57.4366 219.783 57.6319 219.588C57.8271 219.393 57.8271 219.076 57.6319 218.881L56.9248 219.588ZM51.165 212.414C50.9697 212.219 50.6531 212.219 50.4579 212.414C50.2626 212.609 50.2626 212.926 50.4579 213.121L51.165 212.414ZM51.0752 219.586L57.5421 213.119L56.835 212.412L50.3681 218.879L51.0752 219.586ZM57.6319 218.881L51.165 212.414L50.4579 213.121L56.9248 219.588L57.6319 218.881Z" fill="black"/>
<line x1="80" y1="216" x2="88" y2="216" stroke="black" stroke-linecap="round"/>
<line x1="84" y1="212" x2="84" y2="220" stroke="black" stroke-linecap="round"/>
<line x1="110" y1="216" x2="118" y2="216" stroke="black" stroke-linecap="round"/>
<line x1="140" y1="214" x2="148" y2="214" stroke="black" stroke-linecap="round"/>
<line x1="140" y1="218" x2="148" y2="218" stroke="black" stroke-linecap="round"/>
<line x1="24" y1="32" x2="46" y2="32" stroke="black" stroke-linecap="round"/>
<line x1="35" y1="43" x2="35" y2="21" stroke="black" stroke-linecap="round"/>
<line x1="156" y1="32" x2="178" y2="32" stroke="#772480" stroke-linecap="round"/>
<line x1="167" y1="43" x2="167" y2="21" stroke="#772480" stroke-linecap="round"/>
<line x1="68" y1="31.5" x2="90" y2="31.5" stroke="#772480" stroke-linecap="round"/>
<line x1="112" y1="31.5" x2="134" y2="31.5" stroke="black" stroke-linecap="round"/>
<g clip-path="url(#clip9_5288_4481)">
<path d="M49.4747 265.055C50.451 264.079 52.0339 264.079 53.0102 265.055L56.5248 268.57C57.5011 269.546 57.5011 271.129 56.5248 272.105L31.9399 296.69L23.6775 299.645C22.6507 300.012 21.6553 299.028 22.0106 297.998L24.8919 289.638L49.4747 265.055Z" stroke="#333333"/>
<path d="M46.9746 267.689C49.7885 270.503 51.3662 272.081 54.1801 274.895" stroke="#333333"/>
<path d="M34.4536 299.943L57.0282 299.943" stroke="#333333" stroke-linecap="round"/>
</g>
<g clip-path="url(#clip10_5288_4481)">
<path d="M96.7366 286.959V279.001V275.789C96.7366 268.468 102.671 262.534 109.991 262.534V262.534C117.312 262.534 123.246 268.468 123.246 275.789V279.001V286.959" stroke="#333333"/>
<path d="M90.4998 283.578C90.4998 281.645 92.0668 280.078 93.9998 280.078H96.7205V292.647H93.9998C92.0668 292.647 90.4998 291.08 90.4998 289.147V283.578Z" stroke="#333333"/>
<path d="M129.5 283.549C129.5 281.616 127.933 280.049 126 280.049H123.248V292.618H126C127.933 292.618 129.5 291.051 129.5 289.118V283.549Z" stroke="#333333"/>
<path d="M123.25 291.627C123.25 296.686 119.868 298.751 114.81 298.751" stroke="#333333"/>
<rect x="106.456" y="296.204" width="8.34332" height="5.29616" rx="2.2883" stroke="#333333"/>
</g>
<g clip-path="url(#clip11_5288_4481)">
<mask id="path-203-inside-7_5288_4481" fill="white">
<path fill-rule="evenodd" clip-rule="evenodd" d="M197.913 268.302C198.389 267.822 199.194 267.945 199.423 268.581C199.805 269.641 200.014 270.785 200.014 271.978C200.014 277.47 195.6 281.922 190.156 281.922C189.181 281.922 188.239 281.78 187.349 281.514L174.628 294.235C174.64 294.406 174.647 294.579 174.647 294.753C174.647 298.751 171.434 301.991 167.471 301.991C163.509 301.991 160.296 298.751 160.296 294.753C160.296 290.756 163.509 287.516 167.471 287.516C167.883 287.516 168.287 287.551 168.679 287.618L180.897 275.4C180.509 274.333 180.298 273.181 180.298 271.978C180.298 266.487 184.711 262.035 190.156 262.035C191.343 262.035 192.481 262.246 193.536 262.634C194.167 262.867 194.286 263.668 193.808 264.142L190.333 267.589C190.222 267.698 190.166 267.851 190.18 268.006L190.452 271.153C190.473 271.407 190.675 271.609 190.929 271.63L194.076 271.902C194.231 271.916 194.384 271.86 194.493 271.749L197.913 268.302Z"/>
</mask>
<path d="M199.423 268.581L198.483 268.92L199.423 268.581ZM197.913 268.302L197.203 267.598L197.203 267.598L197.913 268.302ZM200.014 271.978L199.014 271.978L199.014 271.978H200.014ZM190.156 281.922L190.156 282.922L190.156 282.922L190.156 281.922ZM187.349 281.514L186.642 280.807L187.064 280.385L187.636 280.556L187.349 281.514ZM174.628 294.235L173.631 294.305L173.599 293.85L173.921 293.528L174.628 294.235ZM174.647 294.753L173.647 294.753L173.647 294.753L174.647 294.753ZM167.471 301.991L167.471 300.991L167.471 301.991ZM167.471 287.516L167.471 286.516L167.471 286.516L167.471 287.516ZM168.679 287.618L169.387 288.325L169.021 288.691L168.511 288.604L168.679 287.618ZM180.897 275.4L181.837 275.059L182.054 275.657L181.604 276.107L180.897 275.4ZM180.298 271.978H179.298H180.298ZM190.156 262.035L190.156 261.035L190.156 261.035L190.156 262.035ZM193.536 262.634L193.19 263.573L193.19 263.573L193.536 262.634ZM193.808 264.142L194.512 264.852L194.512 264.852L193.808 264.142ZM190.333 267.589L189.629 266.879L189.629 266.879L190.333 267.589ZM190.18 268.006L189.183 268.092V268.092L190.18 268.006ZM190.452 271.153L191.448 271.067V271.067L190.452 271.153ZM190.929 271.63L190.843 272.627L190.843 272.627L190.929 271.63ZM194.076 271.902L194.162 270.906L194.162 270.906L194.076 271.902ZM194.493 271.749L195.203 272.453L195.203 272.453L194.493 271.749ZM198.483 268.92C198.487 268.932 198.5 268.956 198.527 268.978C198.552 268.998 198.575 269.006 198.589 269.008C198.617 269.013 198.627 269.002 198.623 269.006L197.203 267.598C198.115 266.678 199.848 266.809 200.364 268.242L198.483 268.92ZM199.014 271.978C199.014 270.902 198.826 269.873 198.483 268.92L200.364 268.242C200.785 269.409 201.014 270.668 201.014 271.978L199.014 271.978ZM190.156 280.922C195.04 280.922 199.014 276.926 199.014 271.978L201.014 271.978C201.014 278.014 196.161 282.922 190.156 282.922L190.156 280.922ZM187.636 280.556C188.433 280.794 189.279 280.922 190.156 280.922L190.156 282.922C189.083 282.922 188.044 282.765 187.063 282.472L187.636 280.556ZM173.921 293.528L186.642 280.807L188.056 282.221L175.335 294.942L173.921 293.528ZM173.647 294.753C173.647 294.602 173.641 294.453 173.631 294.305L175.626 294.165C175.64 294.359 175.647 294.556 175.647 294.753L173.647 294.753ZM167.471 300.991C170.874 300.991 173.647 298.207 173.647 294.753L175.647 294.753C175.647 299.295 171.995 302.991 167.471 302.991L167.471 300.991ZM161.296 294.753C161.296 298.207 164.069 300.991 167.471 300.991L167.471 302.991C162.948 302.991 159.296 299.295 159.296 294.753L161.296 294.753ZM167.471 288.516C164.069 288.516 161.296 291.3 161.296 294.753L159.296 294.753C159.296 290.212 162.948 286.516 167.471 286.516L167.471 288.516ZM168.511 288.604C168.174 288.546 167.826 288.516 167.471 288.516L167.471 286.516C167.94 286.516 168.4 286.556 168.848 286.632L168.511 288.604ZM181.604 276.107L169.387 288.325L167.972 286.911L180.19 274.693L181.604 276.107ZM181.298 271.978C181.298 273.063 181.488 274.1 181.837 275.059L179.957 275.742C179.53 274.567 179.298 273.299 179.298 271.978L181.298 271.978ZM190.156 263.035C185.272 263.035 181.298 267.031 181.298 271.978L179.298 271.978C179.298 265.943 184.151 261.035 190.156 261.035L190.156 263.035ZM193.19 263.573C192.245 263.225 191.223 263.035 190.156 263.035L190.156 261.035C191.463 261.035 192.718 261.268 193.881 261.696L193.19 263.573ZM193.104 263.432C193.108 263.427 193.097 263.437 193.102 263.465C193.104 263.479 193.112 263.503 193.132 263.527C193.154 263.554 193.178 263.568 193.19 263.573L193.881 261.696C195.305 262.22 195.427 263.944 194.512 264.852L193.104 263.432ZM189.629 266.879L193.104 263.432L194.512 264.852L191.037 268.299L189.629 266.879ZM189.183 268.092C189.145 267.641 189.308 267.197 189.629 266.879L191.037 268.299C191.137 268.199 191.188 268.06 191.176 267.92L189.183 268.092ZM189.455 271.24L189.183 268.092L191.176 267.92L191.448 271.067L189.455 271.24ZM190.843 272.627C190.104 272.563 189.519 271.978 189.455 271.24L191.448 271.067C191.428 270.837 191.245 270.654 191.015 270.634L190.843 272.627ZM193.99 272.899L190.843 272.627L191.015 270.634L194.162 270.906L193.99 272.899ZM195.203 272.453C194.885 272.774 194.441 272.937 193.99 272.899L194.162 270.906C194.022 270.894 193.883 270.945 193.783 271.045L195.203 272.453ZM198.623 269.006L195.203 272.453L193.783 271.045L197.203 267.598L198.623 269.006Z" fill="#333333" mask="url(#path-203-inside-7_5288_4481)"/>
<circle cx="167.471" cy="294.753" r="2.67128" stroke="#333333"/>
</g>
<path fill-rule="evenodd" clip-rule="evenodd" d="M237 277.271L232.27 280.347C232.217 280.382 232.169 280.42 232.125 280.462C231.45 280.999 231 281.827 231 282.804V299C231 300.656 232.343 302 234 302H266C267.657 302 269 300.656 269 299V282.804C269 281.711 268.436 280.805 267.626 280.282L263 277.13V278.34L267.062 281.109L267.073 281.116L267.084 281.123C267.629 281.474 268 282.074 268 282.804V299C268 300.104 267.105 301 266 301H234C232.895 301 232 300.104 232 299V282.804C232 282.15 232.297 281.603 232.748 281.243L232.781 281.217L232.811 281.189L232.812 281.189L232.812 281.188L232.815 281.186L237 278.464V277.271Z" fill="#333333"/>
<mask id="path-207-inside-8_5288_4481" fill="white">
<path fill-rule="evenodd" clip-rule="evenodd" d="M239 263H261C261.552 263 262 263.448 262 264V286.905L263 286.398V264C263 262.895 262.105 262 261 262H239C237.895 262 237 262.895 237 264V286.579L238 287.073V264C238 263.448 238.448 263 239 263ZM247.973 292L249.099 292.556C249.664 292.836 250.328 292.832 250.89 292.547L251.967 292H247.973Z"/>
</mask>
<path fill-rule="evenodd" clip-rule="evenodd" d="M239 263H261C261.552 263 262 263.448 262 264V286.905L263 286.398V264C263 262.895 262.105 262 261 262H239C237.895 262 237 262.895 237 264V286.579L238 287.073V264C238 263.448 238.448 263 239 263ZM247.973 292L249.099 292.556C249.664 292.836 250.328 292.832 250.89 292.547L251.967 292H247.973Z" fill="white"/>
<path d="M262 286.905H261V288.535L262.453 287.797L262 286.905ZM263 286.398L263.453 287.289L264 287.011V286.398H263ZM237 286.579H236V287.2L236.557 287.475L237 286.579ZM238 287.073L237.557 287.969L239 288.682V287.073H238ZM249.099 292.556L248.656 293.453L248.656 293.453L249.099 292.556ZM247.973 292V291L247.53 292.897L247.973 292ZM250.89 292.547L251.343 293.438L251.343 293.438L250.89 292.547ZM251.967 292L252.42 292.892L251.967 291V292ZM261 262H239V264H261V262ZM263 264C263 262.895 262.105 262 261 262V264H263ZM263 286.905V264H261V286.905H263ZM262.547 285.506L261.547 286.014L262.453 287.797L263.453 287.289L262.547 285.506ZM264 286.398V264H262V286.398H264ZM264 264C264 262.343 262.657 261 261 261V263C261.552 263 262 263.448 262 264H264ZM261 261H239V263H261V261ZM239 261C237.343 261 236 262.343 236 264H238C238 263.448 238.448 263 239 263V261ZM236 264V286.579H238V264H236ZM238.443 286.176L237.443 285.682L236.557 287.475L237.557 287.969L238.443 286.176ZM237 264V287.073H239V264H237ZM239 262C237.895 262 237 262.895 237 264H239V262ZM249.542 291.66L248.416 291.103L247.53 292.897L248.656 293.453L249.542 291.66ZM250.438 291.655C250.157 291.798 249.825 291.799 249.542 291.66L248.656 293.453C249.504 293.872 250.5 293.866 251.343 293.438L250.438 291.655ZM251.514 291.108L250.438 291.655L251.343 293.438L252.42 292.892L251.514 291.108ZM247.973 293H251.967V291H247.973V293Z" fill="#333333" mask="url(#path-207-inside-8_5288_4481)"/>
<path d="M241.991 273H258.009" stroke="#333333" stroke-linecap="round"/>
<path d="M241.991 277.373H253.009" stroke="#333333" stroke-linecap="round"/>
<path d="M265.865 283.853C266.111 283.728 266.413 283.826 266.538 284.071C266.664 284.317 266.566 284.619 266.32 284.744L265.865 283.853ZM250.904 292.052L251.132 292.498L250.904 292.052ZM249.102 292.061L249.325 291.613L249.102 292.061ZM233.651 284.907C233.404 284.783 233.304 284.483 233.427 284.236C233.551 283.989 233.851 283.889 234.098 284.012L233.651 284.907ZM266.32 284.744L251.132 292.498L250.677 291.607L265.865 283.853L266.32 284.744ZM248.878 292.508L233.651 284.907L234.098 284.012L249.325 291.613L248.878 292.508ZM251.132 292.498C250.425 292.859 249.588 292.862 248.878 292.508L249.325 291.613C249.751 291.826 250.253 291.824 250.677 291.607L251.132 292.498Z" fill="#333333"/>
<rect x="306.5" y="262.5" width="25" height="39" rx="2.5" stroke="#333333"/>
<path d="M317.5 265.5C317.224 265.5 317 265.724 317 266C317 266.276 317.224 266.5 317.5 266.5V265.5ZM320.5 266.5C320.776 266.5 321 266.276 321 266C321 265.724 320.776 265.5 320.5 265.5V266.5ZM317.5 266.5H320.5V265.5H317.5V266.5Z" fill="#333333"/>
<path d="M326.999 271C320.371 271 315 275.238 315 280.466C315 283.869 317.277 286.85 320.693 288.519C320.444 289.454 319.784 291.907 319.652 292.431C319.49 293.082 319.892 293.074 320.155 292.898C320.361 292.761 323.443 290.671 324.773 289.768C325.511 289.877 326.255 289.932 327.001 289.932C333.629 289.932 339 285.693 339 280.466C339 275.238 333.627 271 327.001 271" fill="white"/>
<path d="M326.999 271C320.371 271 315 275.238 315 280.466C315 283.869 317.277 286.85 320.693 288.519C320.444 289.454 319.784 291.907 319.652 292.431C319.49 293.082 319.892 293.074 320.155 292.898C320.361 292.761 323.443 290.671 324.773 289.768C325.511 289.877 326.255 289.932 327.001 289.932C333.629 289.932 339 285.693 339 280.466C339 275.238 333.627 271 327.001 271" stroke="#333333"/>
<defs>
<clipPath id="clip0_5288_4481">
<rect width="24" height="24" fill="white" transform="translate(28 634)"/>
</clipPath>
<clipPath id="clip1_5288_4481">
<rect width="14" height="14" fill="white" transform="translate(1014 26)"/>
</clipPath>
<clipPath id="clip2_5288_4481">
<rect width="60" height="11" fill="white" transform="translate(1014 279)"/>
</clipPath>
<clipPath id="clip3_5288_4481">
<rect width="24" height="24" fill="white" transform="translate(650 198)"/>
</clipPath>
<clipPath id="clip4_5288_4481">
<rect width="24" height="24" fill="white" transform="translate(778 198)"/>
</clipPath>
<clipPath id="clip5_5288_4481">
<rect width="13" height="13" fill="white" transform="translate(689 152)"/>
</clipPath>
<clipPath id="clip6_5288_4481">
<rect width="20" height="20" fill="white" transform="translate(103 85)"/>
</clipPath>
<clipPath id="clip7_5288_4481">
<rect width="20" height="20" fill="white" transform="translate(143 85)"/>
</clipPath>
<clipPath id="clip8_5288_4481">
<rect width="20" height="20" fill="white" transform="translate(303 85)"/>
</clipPath>
<clipPath id="clip9_5288_4481">
<rect width="40" height="40" fill="white" transform="translate(20 262)"/>
</clipPath>
<clipPath id="clip10_5288_4481">
<rect width="40" height="40" fill="white" transform="translate(90 262)"/>
</clipPath>
<clipPath id="clip11_5288_4481">
<rect width="40" height="40" fill="white" transform="matrix(-1 0 0 1 200 262)"/>
</clipPath>
</defs>
</svg>
